<svg width="24" height="24" viewBox="0 0 24 24" xmlns="http://www.w3.org/2000/svg">
    <g fill="none" fill-rule="evenodd">
        <path d="M0 0h24v24H0z"/>
        <path d="M21.922 14.611C20.39 10.835 16.403 8.3 12 8.3h-.02c-4.392.01-8.372 2.544-9.901 6.311L2 14.8l.078.19C3.61 18.767 7.597 21.3 12 21.3h.02c4.393-.008 8.372-2.543 9.901-6.31L22 14.8l-.078-.189z" fill="#A9B0C4"/>
        <path d="M16.5 14.8c0-2.481-2.019-4.5-4.5-4.5a4.505 4.505 0 0 0-4.5 4.5c0 2.481 2.019 4.5 4.5 4.5s4.5-2.019 4.5-4.5z" fill="#FFF" fill-rule="nonzero"/>
        <path d="M14.5 14.8c0-1.379-1.121-2.5-2.5-2.5a2.503 2.503 0 0 0-2.5 2.5c0 1.378 1.121 2.5 2.5 2.5s2.5-1.122 2.5-2.5z" fill="#A9B0C4" fill-rule="nonzero"/>
        <g fill-rule="nonzero" stroke="#A9B0C4" stroke-width="1.166">
            <path d="M7.3 7.244a.427.427 0 0 0 .146-.57l-1.2-2.165a.391.391 0 0 0-.546-.153.427.427 0 0 0-.146.57l1.2 2.166c.11.2.356.267.546.152zM18.3 4.356a.391.391 0 0 0-.546.153l-1.2 2.166c-.11.2-.045.454.146.57.19.114.436.047.546-.153l1.2-2.167a.427.427 0 0 0-.146-.57z" fill="#A9B0C4"/>
            <path d="M12.5 5.625v-2.25c0-.207-.224-.375-.5-.375s-.5.168-.5.375v2.25c0 .207.224.375.5.375s.5-.168.5-.375z" fill="#79829D"/>
        </g>
    </g>
</svg>
