<svg width="38" height="38" viewBox="0 0 38 38" xmlns="http://www.w3.org/2000/svg">
    <g fill="none" fill-rule="evenodd">
        <rect fill="#003C83" width="38" height="38" rx="9"/>
        <path d="M30.035 18.956c0-1.216-.756-2.316-2.086-3.214-.182-.145-.34-.057-.418.058-.051.087-1.981 5.095-4.25 7.817-.26.318.026.376.391.29 3.755-.84 6.363-2.751 6.363-4.951m-10.013.868c-.992.203-1.956.58-2.713.898-2.45.955-3.598 1.968-3.833 2.2-.313.29-.078.434.209.52 1.669.551 4.198.957 5.815.899 1.173-.059 1.826-1.477 2.112-2.085 1.2-2.866-.99-2.548-1.59-2.432m-8.58 2.287c.052-.116 1.982-5.124 4.25-7.845.287-.29-.026-.348-.39-.261-3.756.81-6.364 2.721-6.364 4.922 0 1.216.783 2.345 2.087 3.242.182.116.365.03.417-.058m7.51-4.053c.991-.203 1.956-.579 2.712-.897 2.452-.955 3.599-1.94 3.834-2.172.313-.318.078-.434-.21-.55-1.668-.55-4.197-.955-5.814-.868-1.174.029-1.826 1.448-2.086 2.055-1.226 2.867.964 2.577 1.564 2.432M31 18.956c0 3.532-5.163 6.427-11.5 6.427-6.363 0-11.5-2.895-11.5-6.427 0-3.561 5.137-6.456 11.5-6.456 6.337 0 11.5 2.895 11.5 6.456" fill="#FFF"/>
    </g>
</svg>
