<svg width="30" height="30" viewBox="0 0 30 30" xmlns="http://www.w3.org/2000/svg">
    <g fill-rule="nonzero" fill="none">
        <path d="M15 0C6.716 0 0 6.716 0 15c0 8.284 6.716 15 15 15 8.284 0 15-6.716 15-15 0-8.284-6.716-15-15-15z" fill="#000" opacity=".3"/>
        <path d="M20.914 17.029c-.893 1.076-2.179 2.171-3.664 3.439-.506.43-1.084.922-1.68 1.443a.86.86 0 0 1-.57.214.86.86 0 0 1-.57-.214c-.596-.521-1.174-1.012-1.68-1.444-1.485-1.267-2.771-2.362-3.664-3.438-.997-1.204-1.462-2.348-1.462-3.593 0-1.215.416-2.332 1.17-3.15A3.969 3.969 0 0 1 11.745 9c.851 0 1.631.27 2.318.803.348.266.66.596.937.978.277-.382.592-.712.938-.979A3.703 3.703 0 0 1 18.255 9c1.14 0 2.186.457 2.951 1.286.754.818 1.17 1.935 1.17 3.15 0 1.245-.465 2.389-1.462 3.593z" fill="#FC4A5F"/>
    </g>
</svg>
