<svg width="38" height="38" viewBox="0 0 38 38" xmlns="http://www.w3.org/2000/svg">
    <g fill="none" fill-rule="evenodd">
        <rect fill="#40AAFE" width="38" height="38" rx="12"/>
        <g fill="#FFF" fill-rule="nonzero" stroke="#FFF" stroke-width=".4">
            <path d="M19 7C12.373 7 7 12.373 7 19s5.373 12 12 12 12-5.373 12-12S25.627 7 19 7m11.22 12c0 6.197-5.023 11.22-11.22 11.22-6.197 0-11.22-5.024-11.22-11.22 0-6.196 5.024-11.22 11.22-11.22 6.196 0 11.22 5.023 11.22 11.22"/>
            <path d="M18.76 26.112A7.116 7.116 0 0 1 19 11.885l.24.003A7.116 7.116 0 0 1 19 26.115zM19 19h6.727A6.733 6.733 0 0 0 19 12.275V19h-6.726A6.733 6.733 0 0 0 19 25.726V19z"/>
        </g>
    </g>
</svg>
