<svg width="38" height="38" viewBox="0 0 38 38" xmlns="http://www.w3.org/2000/svg">
    <defs>
        <path id="1w6qg4z74a" d="M7 16h24v6H7z"/>
    </defs>
    <g fill="none" fill-rule="evenodd">
        <g>
            <rect fill="#E65565" width="38" height="38" rx="9"/>
        </g>
        <path d="M31 16.514v3.42a.822.822 0 0 1-.368.7l-2.07 1.358c-.038.023-.082-.006-.082-.053v-3.932c0-.047-.05-.077-.083-.047l-5.512 3.838a.566.566 0 0 1-.33.106h-3.657c-.241 0-.439-.212-.439-.47v-4.861c0-.047-.05-.077-.082-.053l-3.668 2.368c-.033.018-.033.065-.011.094l2.658 2.84c.027.029.005.082-.033.082h-2.46a.478.478 0 0 1-.352-.153l-1.57-1.675c-.016-.018-.044-.024-.066-.006l-2.707 1.751a.523.523 0 0 1-.28.083H7.44c-.241 0-.439-.212-.439-.47V18.06c0-.288.143-.559.373-.706l2.087-1.346c.038-.023.082.006.082.053v4.473c0 .047.05.076.083.053l6.901-4.461a.523.523 0 0 1 .28-.082h3.68c.24 0 .438.211.438.47v4.82c0 .046.05.076.083.046l7.599-5.242a.54.54 0 0 1 .297-.094h1.652c.247 0 .445.205.445.47" fill="#FFF" stroke="#FFF" stroke-width=".2"/>
    </g>
</svg>
