<svg width="38" height="38" viewBox="0 0 38 38" xmlns="http://www.w3.org/2000/svg">
    <g fill="none" fill-rule="evenodd">
        <rect fill="#231916" width="38" height="38" rx="9"/>
        <path d="M21.874 16.776c-.03.187-.336 1.336-.989 2.167-.734.935-1.601 1.446-1.885 1.613-.284-.167-1.151-.678-1.885-1.613-.653-.831-.96-1.98-.989-2.167-.028-.19.062-.36.288-.493.424-.252 2.142-.801 2.586-.802.444 0 2.162.55 2.586.802.226.134.317.304.288.493" fill="#231916"/>
        <g fill="#FEFEFE" stroke="#FFF" stroke-width=".2">
            <path d="M12.4 24.014c0-.57.395-1.014.94-1.014.37 0 .645.185.806.473l-.188.146a.675.675 0 0 0-.618-.368c-.414 0-.681.331-.681.763s.278.764.702.764a.775.775 0 0 0 .564-.228v-.386h-.37v-.239h.621v.74a1.12 1.12 0 0 1-.817.363c-.556 0-.959-.444-.959-1.014M14.85 23.035h.967v.236h-.716v.616h.662v.236H15.1v.634h.716v.236h-.967zM16.742 23.6v1.394h-.25v-1.96h.062l1.27 1.395v-1.394h.25v1.993h-.063zM18.748 23.035h.967v.236h-.716v.616h.661v.236H19v.634h.716v.236h-.967zM20.585 24.406c.079.213.229.372.477.372.231 0 .367-.142.367-.334 0-.16-.09-.263-.304-.323l-.189-.052c-.261-.072-.444-.25-.444-.516 0-.314.227-.553.583-.553.292 0 .501.176.586.378l-.188.132c-.087-.161-.223-.26-.4-.26-.196 0-.322.119-.322.289 0 .135.09.23.243.274l.182.052c.319.089.512.267.512.57 0 .34-.259.593-.629.593-.379 0-.58-.25-.67-.501l.196-.121zM22.362 24.993h.25v-1.958h-.25zM23.483 24.406c.079.213.229.372.476.372.232 0 .368-.142.368-.334 0-.16-.09-.263-.305-.323l-.188-.052c-.261-.072-.444-.25-.444-.516 0-.314.226-.553.583-.553.292 0 .501.176.586.378l-.188.132c-.087-.161-.224-.26-.4-.26-.197 0-.322.119-.322.289 0 .135.09.23.242.274l.183.052c.318.089.512.267.512.57 0 .34-.259.593-.63.593-.378 0-.58-.25-.67-.501l.197-.121z"/>
        </g>
        <path d="M14.818 17.413c-.466-.28-2.573-.422-4.149-.595a300.31 300.31 0 0 0-4.34-.435c.85.868 1.3 1.104 2.157 1.312.757.183 3.111.307 5.094.395.523.023.572.326.572.326l-3.88-.087c.596.219 1.782.578 2.633.738.572.107 1.7.06 2.144.031.445-.028.575.304.575.304l-1.258.097s.461.152 1.28.372c.63.168 1.453.305 1.453.305-1.25-1.019-1.57-2.335-2.281-2.763" fill="#FEFEFE"/>
        <path d="M22.343 15.877c-.484 0-2.448-.876-3.343-.877-.895.001-2.86.877-3.343.877-1.204 0-10.157-.454-10.157-.454.279.431.454.487.696.558.447.13 6.072.593 7.533.771 1.262.154 1.574.308 1.915.811.43.637.907 2.245 3.356 3.48 2.449-1.235 2.926-2.843 3.356-3.48.341-.503.653-.657 1.915-.81 1.461-.179 7.086-.642 7.533-.772.242-.071.417-.127.696-.558 0 0-8.953.454-10.157.454m-.47.899c-.028.187-.335 1.336-.988 2.167A6.667 6.667 0 0 1 19 20.556a6.67 6.67 0 0 1-1.885-1.613c-.653-.83-.96-1.98-.988-2.167-.03-.19.061-.36.287-.493.424-.252 2.142-.801 2.586-.802.444 0 2.162.55 2.586.802.226.134.316.304.287.493" fill="#FEFEFE"/>
        <path d="M23.182 17.413c.466-.28 2.573-.422 4.149-.595a300.43 300.43 0 0 1 4.34-.435c-.849.868-1.3 1.104-2.157 1.312-.757.183-3.112.307-5.094.395-.523.023-.572.326-.572.326l3.88-.087c-.596.219-1.781.578-2.634.738-.571.107-1.7.06-2.143.031-.444-.028-.575.304-.575.304l1.259.097s-.462.152-1.281.372c-.63.168-1.452.305-1.452.305 1.25-1.019 1.57-2.335 2.28-2.763M21.019 17.176c-.088-.05-.18-.076-.18-.161 0-.042.037-.076.112-.076.076 0 .15.029.212.058l.02-.112a.647.647 0 0 0-.22-.04c-.185 0-.286.087-.286.206 0 .116.08.179.19.233.096.047.176.078.176.152 0 .056-.042.092-.123.092a.553.553 0 0 1-.22-.058l-.012.13c.03.01.147.03.237.03.147 0 .28-.075.28-.212 0-.132-.093-.19-.186-.242zm-2.933-.22-.025-.095h-.507l-.017.045.032.017c.021.01.026.025.026.05v.642h.491v-.098h-.333v-.245h.289v-.094h-.289v-.221h.333zm1.91.22c-.087-.05-.18-.076-.18-.161 0-.042.038-.076.113-.076.076 0 .149.029.212.058l.02-.112a.647.647 0 0 0-.22-.04c-.185 0-.28.087-.28.206 0 .116.074.179.183.233.096.047.177.078.177.152 0 .056-.042.092-.123.092a.555.555 0 0 1-.22-.058l-.012.13c.03.01.147.03.237.03.147 0 .28-.075.28-.212 0-.132-.093-.19-.186-.242zm.295-.27.032.017c.022.012.028.025.028.05v.642h.157v-.754h-.199l-.018.045zm-.742.05-.025-.095h-.507l-.017.045.032.017c.021.01.026.025.026.05v.642h.491v-.098h-.333v-.245h.288v-.094h-.288v-.221h.333zm-.803.416-.383-.51h-.151l-.018.044.031.017c.024.012.029.025.029.048v.644h.112v-.488l.367.488h.126v-.754h-.113v.511zm-1.573-.115.07.03c.02.01.028.02.028.046v.168a.225.225 0 0 1-.115.029c-.135-.006-.235-.121-.235-.29 0-.173.09-.3.244-.3.038 0 .122.01.21.086l.032-.123a.595.595 0 0 0-.245-.062c-.221-.005-.405.125-.405.402 0 .247.164.388.38.388.159 0 .255-.056.278-.076v-.342h-.225l-.017.044z" fill="#FEFEFE"/>
    </g>
</svg>
