<svg width="38" height="38" viewBox="0 0 38 38" xmlns="http://www.w3.org/2000/svg">
    <g fill="none" fill-rule="evenodd">
        <rect fill="#1239AA" width="38" height="38" rx="9"/>
        <path d="M19.707 21.567c-3.798.27-6.979-.812-7.105-2.417-.126-1.605 2.85-3.124 6.648-3.394 3.797-.27 6.978.812 7.104 2.417.127 1.605-2.85 3.124-6.647 3.394m10.289-2.752a2.05 2.05 0 0 0-.027-.218c-.098-1.57-2.655-2.91-6.285-3.503a18.78 18.78 0 0 0-.519-.079l-.187-.024a20.973 20.973 0 0 0-.312-.04l-.038-.005a25.647 25.647 0 0 0-1.329-.121l.867-1.82a26.524 26.524 0 0 0-2.067.039c-6.298.36-11.265 2.83-11.095 5.515.005.075.015.148.027.22.097 1.57 2.655 2.91 6.284 3.501l.027.005a32.168 32.168 0 0 0 .493.074l.186.025.313.04.038.004c.431.051.875.092 1.329.122l-.867 1.82c.672.013 1.363.001 2.067-.04 6.298-.36 11.265-2.83 11.095-5.515" fill="#FFF"/>
    </g>
</svg>
