<svg width="40" height="40" viewBox="0 0 40 40" xmlns="http://www.w3.org/2000/svg">
    <g fill-rule="nonzero" fill="none">
        <path d="m20 0-4.98 10L20 20l10.592-3.55 3.55-10.592A19.938 19.938 0 0 0 20 0z" fill="#FFE278"/>
        <path d="M20 0A19.937 19.937 0 0 0 5.858 5.858l3.55 10.592L20 20V0z" fill="#B0D16F"/>
        <path d="M5.858 5.858A19.937 19.937 0 0 0 0 20l10 4.98L20 20 5.858 5.858z" fill="#45C5FF"/>
        <path d="M0 20a19.937 19.937 0 0 0 5.858 14.142l10.592-3.55L20 20H0z" fill="#0CA8ED"/>
        <path d="M5.858 34.142A19.937 19.937 0 0 0 20 40l4.98-10L20 20 5.858 34.142z" fill="#1365C2"/>
        <path d="M20 40a19.937 19.937 0 0 0 14.142-5.858l-3.55-10.592L20 20v20z" fill="#F71E78"/>
        <path d="M34.142 34.142A19.937 19.937 0 0 0 40 20l-10-4.98L20 20l14.142 14.142z" fill="#FF776B"/>
        <path d="M34.142 5.858 20 20h20a19.937 19.937 0 0 0-5.858-14.142z" fill="#FFB54C"/>
    </g>
</svg>
