<svg width="38" height="38" viewBox="0 0 38 38" xmlns="http://www.w3.org/2000/svg" xmlns:xlink="http://www.w3.org/1999/xlink">
    <defs>
        <path id="0zsoo64cja" d="M0 0h4.921v1.984H0z"/>
    </defs>
    <g fill="none" fill-rule="evenodd">
        <rect fill="#D0A052" width="38" height="38" rx="9"/>
        <path d="M27.371 24.016h3.776v.332h-.771v1.649H29.7v-1.65h-2.244c-.034 0-.066 0-.085.014-.021.016-.025.044-.026.073l-.002.352h1.423v.328h-1.423c0 .151 0 .302.005.453.002.038.007.061.032.079.02.013.051.015.076.015h1.44v.336h-1.634c-.165 0-.294 0-.438-.095-.162-.104-.162-.398-.162-.926 0-.555.008-.698.112-.816.12-.134.253-.144.597-.144M17.84 25.996v-1.98H19.7c.142 0 .302 0 .418.089.136.106.14.312.14.495 0 .162-.011.34-.134.432-.098.075-.232.09-.354.09h-.285c-.012 0-.016.016-.007.022l1.137.852h-.932l-.982-.861v-.303h.819c.025-.002.057-.02.057-.046.006-.065.006-.124.006-.197 0-.064-.001-.133-.006-.196-.002-.03-.021-.045-.043-.045h-1.025v1.648h-.667z" stroke="#FFF" stroke-width=".1" fill="#FFF"/>
        <g transform="translate(12.417 24.016)">
            <mask id="pfb1axcmlb" fill="#fff">
                <use xlink:href="#0zsoo64cja"/>
            </mask>
            <path d="M.709 0h2.249l.644 1.606.016.029c.004.007.014.012.025.014.026.002.053.003.07 0 .013-.002.02-.004.026-.013a.826.826 0 0 0 .017-.03C3.97 1.07 4.188.535 4.404 0h.517l-.75 1.745a.768.768 0 0 1-.083.152.192.192 0 0 1-.135.075 5.756 5.756 0 0 1-.387.012c-.121 0-.208-.004-.307-.008-.168-.007-.233-.063-.283-.165a7.562 7.562 0 0 1-.159-.34L2.325.33H.792c-.035 0-.066 0-.083.014C.688.36.68.389.68.418L.678.77h1.424v.327H.68c0 .152 0 .303.004.454 0 .038.006.061.033.079.018.013.05.015.075.015h1.44v.335H.596c-.163 0-.294 0-.437-.094C0 1.782 0 1.488 0 .96 0 .405.007.262.11.144.23.01.363 0 .71 0" stroke="#FFF" stroke-width=".1" fill="#FFF" mask="url(#pfb1axcmlb)"/>
        </g>
        <path stroke="#FFF" stroke-width=".1" fill="#FFF" d="M9.48 25.996v-1.98h.68v.778h1.076v-.778h.678v1.98h-.678v-.887H10.16v.887zM7.592 24.348h1.336v-.332H7.506c-.345 0-.476.01-.598.144-.103.118-.11.26-.11.816 0 .528 0 .822.16.926.145.095.275.095.438.095h1.58v-.336H7.593c-.025 0-.058-.002-.077-.015-.025-.018-.031-.041-.033-.08-.004-.186-.004-.375-.004-.562 0-.198 0-.451.002-.57 0-.029.006-.057.027-.073.019-.013.05-.013.085-.013M22.89 25.004c0 .196-.003.45-.003.57 0 .027-.005.055-.027.072-.018.015-.049.015-.085.015a33.954 33.954 0 0 1-.866 0c-.037 0-.066 0-.085-.015-.022-.017-.026-.045-.027-.073a39.691 39.691 0 0 1 0-1.14c.001-.028.005-.056.027-.072.02-.013.048-.013.085-.013.144-.005.299-.005.433-.005.133 0 .288 0 .433.005.036 0 .067 0 .085.013.022.016.027.044.027.073 0 .12.003.374.003.57m.568-.844c-.12-.134-.253-.138-.598-.144a35.26 35.26 0 0 0-.518-.005c-.153 0-.346.002-.518.005-.343.006-.478.01-.597.144-.106.118-.11.261-.11.844s.004.725.11.843c.12.135.254.138.597.144a24.498 24.498 0 0 0 1.036 0c.345-.006.477-.009.598-.144.104-.118.11-.26.11-.843s-.006-.726-.11-.844M24.07 24.016v1.98h2.09v-.335h-1.41v-1.645z"/>
        <path d="M22.261 13.675v1.764h8.136l-1.746 3.417h-6.359v1.709H15.65v-1.666l-8.054-.003 1.738-3.457h6.316v-1.764h6.612z" stroke="#FFF" stroke-width="1.35"/>
    </g>
</svg>
