<svg width="38" height="38" viewBox="0 0 38 38" xmlns="http://www.w3.org/2000/svg">
    <g fill="none" fill-rule="evenodd">
        <rect fill="#166DB9" width="38" height="38" rx="9"/>
        <path d="M9.341 20.093c.078-.035.175-.064.277-.1.048.376.12.74.217 1.097a4.328 4.328 0 0 1-.494-.164c-.325-.129-.5-.27-.5-.416 0-.147.175-.288.5-.417m9.292-9.074c.126-.006.259-.006.385-.006.193 0 .38.006.572.018 2.9.205 5.386 1.947 6.59 4.393a35.742 35.742 0 0 0-4.31-.252 35.6 35.6 0 0 0-2.28.07c-.325.018-.644.041-.957.07-3.436.306-5.886 1.086-5.886 1.99 0 .416.506.803 1.384 1.125a31.03 31.03 0 0 0-3.05.305c.005-4.123 3.363-7.513 7.552-7.713m7.962 5.45c.174.533.283 1.09.33 1.66-.144.023-.3.04-.457.058a30.326 30.326 0 0 1-3.568.193c-1.216 0-2.347-.058-3.31-.164a17.425 17.425 0 0 1-.957-.123c-1.222-.194-1.98-.47-1.98-.774 0-.3.758-.575 1.98-.769.295-.047.614-.088.957-.123a30.958 30.958 0 0 1 3.31-.164c1.324 0 2.557.07 3.568.194.043 0 .085.005.127.011m-.127 4.927c-1.047 2.798-3.713 4.851-6.878 5.068-.193.012-.38.024-.572.024-.126 0-.259-.006-.385-.012-2.847-.135-5.314-1.742-6.602-4.059 1.234.147 2.624.229 4.098.229.867 0 1.71-.03 2.504-.082.325-.024.644-.053.957-.083 3.31-.316 5.663-1.079 5.663-1.97 0-.41-.512-.798-1.39-1.127a29.85 29.85 0 0 0 2.605-.24l.476-.07a7.439 7.439 0 0 1-.476 2.322M11.14 19.683c1.09-.153 2.492-.247 4.008-.247 1.288 0 2.486.065 3.485.176.343.041.662.088.957.135 1.15.194 1.865.464 1.865.763s-.716.569-1.865.762c-.295.053-.614.094-.957.135a32.14 32.14 0 0 1-3.485.176c-1.33 0-2.57-.07-3.586-.188a7.445 7.445 0 0 1-.422-1.712m17.58-2.745c.282.117.432.246.432.38 0 .142-.15.27-.433.388a2.25 2.25 0 0 1-.265.1 8.212 8.212 0 0 0-.168-1.021c.168.047.313.1.433.153M8.005 21.483c.361.165.812.317 1.336.452.265.065.548.129.843.194 1.348 3.32 4.61 5.713 8.449 5.865.126 0 .259.006.385.006a9.582 9.582 0 0 0 7.45-3.537c1.27-1.572 2.035-3.549 2.035-5.695.072-.018.144-.041.216-.06 1.42-.374 2.281-.867 2.281-1.407 0-.534-.86-1.026-2.28-1.402a9.77 9.77 0 0 0-.741-.176 9.076 9.076 0 0 0-1.51-2.686 9.54 9.54 0 0 0-6.88-3.52 9.297 9.297 0 0 0-.571-.017c-.126 0-.259 0-.385.006-5.05.2-9.105 4.276-9.105 9.244 0 .094 0 .194.006.287a8.35 8.35 0 0 0-.193.053 8.309 8.309 0 0 0-1.336.446c-.644.293-1.005.628-1.005.974 0 .352.361.68 1.005.973" fill="#FFF"/>
    </g>
</svg>
