<svg width="38" height="38" viewBox="0 0 38 38" xmlns="http://www.w3.org/2000/svg">
    <g fill="none" fill-rule="evenodd">
        <rect fill="#565556" width="38" height="38" rx="9"/>
        <path d="M19 31c-6.627 0-12-5.373-12-12S12.373 7 19 7s12 5.373 12 12-5.373 12-12 12" fill="#FFF"/>
        <path d="m19.003 20.813-9.742 4.032a11.316 11.316 0 0 0 9.784 5.533 11.339 11.339 0 0 0 9.743-5.595l-9.785-3.97M17.316 17.965 18.868 7.68a11.361 11.361 0 0 0-9.69 5.68 11.312 11.312 0 0 0-.063 11.232l8.2-6.627M20.639 18.101l8.294 6.419a11.319 11.319 0 0 0-.125-11.18A11.354 11.354 0 0 0 19.16 7.68l1.48 10.42" fill="#565556"/>
    </g>
</svg>
